<svg width="512" height="512" viewBox="0 0 512 512" fill="none" xmlns="http://www.w3.org/2000/svg">
<rect width="512" height="512" rx="145" fill="#23E72A"/>
<path d="M241.249 369.001C241.249 377.285 247.965 384.001 256.249 384.001C264.533 384.001 271.249 377.285 271.249 369.001H241.249ZM266.856 131.393C260.998 125.535 251.5 125.535 245.642 131.393L150.183 226.852C144.325 232.71 144.325 242.208 150.183 248.066C156.041 253.924 165.538 253.924 171.396 248.066L256.249 163.213L341.102 248.066C346.96 253.924 356.457 253.924 362.315 248.066C368.173 242.208 368.173 232.71 362.315 226.852L266.856 131.393ZM271.249 369.001V142H241.249L241.249 369.001H271.249Z" fill="white"/>
</svg>
